<?xml version="1.0" standalone="no"?><!DOCTYPE svg PUBLIC "-//W3C//DTD SVG 1.1//EN" "http://www.w3.org/Graphics/SVG/1.1/DTD/svg11.dtd"><svg t="1509949682198" class="icon" style="" viewBox="0 0 1024 1024" version="1.1" xmlns="http://www.w3.org/2000/svg" p-id="1651" xmlns:xlink="http://www.w3.org/1999/xlink" width="200" height="200"><defs><style type="text/css"></style></defs><path d="M971.77561042 53.94189275c-26.63050141-26.63050141-58.720256-39.94575273-96.35803227-39.94575273H148.58242185c-37.59339141 0-69.72752964 13.31525132-96.35803227 39.94575273-26.63050141 26.63050141-39.94575273 58.720256-39.94575152 96.35803105v499.72136315c0 37.63777505 13.31525132 69.72752964 39.94575152 96.35803106 26.63050141 26.63050141 58.720256 39.94575273 96.35803227 39.94575273h45.44938954v227.15817802L512 786.28068588h363.41757815c37.63777505 0 69.72752964-13.31525132 96.35803227-39.94575152 26.63050141-26.63050141 39.94575273-58.720256 39.94575152-96.35803226V150.2999238c0-37.63777505-13.31525132-69.72752964-39.94575152-96.35803105z m-50.90864272 596.0793942c0 12.56071956-4.4384171 23.25730524-13.31525132 32.13413824-8.87683421 8.87683421-19.57341867 13.31525132-32.13413823 13.31525132h-392.53359305l-198.04216312 141.58549993v-141.58549993h-136.25940013a43.67402294 43.67402294 0 0 1-32.0897546-13.31525132c-8.87683421-8.87683421-13.31525132-19.57341867-13.3152513-32.13413824V150.2999238c0-12.56071956 4.4384171-23.25730524 13.3152513-32.13413823 8.87683421-8.87683421 19.57341867-13.31525132 32.0897546-13.31525011h726.8351563c12.56071956 0 23.25730524 4.4384171 32.13413823 13.31525011 8.87683421 8.87683421 13.31525132 19.57341867 13.31525132 32.13413823v499.72136315z" p-id="1652"></path><path d="M513.10960458 524.45847128c-44.02909579 0-53.03908215 20.32794919-53.03908216 50.86425786 0 36.7057075 14.38047103 50.28726435 53.03908216 50.28726435 38.56984261 0 53.57169201-14.11416549 53.57169201-50.28726435 0-36.6169402-15.0018494-50.86425786-53.57169201-50.86425786zM510.89039542 182.87790459c-75.94131334 0-146.37898988 16.28898979-147.71051512 134.26211166a9.14313853 9.14313853 0 0 0 9.09875488 9.18752339h77.36160711a9.09875488 9.09875488 0 0 0 9.05437002-8.07791881c4.74910629-42.29811283 12.07249457-53.70484539 54.41499227-53.70484417 38.21476978 0 49.88780666 9.85328541 49.88780544 42.16496067 0 31.15768703-11.40673134 38.34792194-36.39501832 54.14868673-45.8932309 29.24916705-60.45123894 33.554432-60.45123894 114.68869298 0 5.01541061 4.08334305 9.09875488 9.09875488 9.09875489h71.76920177a9.09875488 9.09875488 0 0 0 9.09875489-9.09875489c0-42.07619216 4.12772793-38.70299599 29.91493029-53.4829235 41.80988784-23.65676172 74.78732512-42.3424977 74.78732511-113.13524826 0-111.71495451-80.11342612-126.05104067-149.92972428-126.05104069z" p-id="1653"></path></svg>
