<?xml version="1.0" standalone="no"?><!DOCTYPE svg PUBLIC "-//W3C//DTD SVG 1.1//EN" "http://www.w3.org/Graphics/SVG/1.1/DTD/svg11.dtd"><svg t="1513778496100" class="icon" style="" viewBox="0 0 1024 1024" version="1.1" xmlns="http://www.w3.org/2000/svg" p-id="2464" xmlns:xlink="http://www.w3.org/1999/xlink" width="200" height="200"><defs><style type="text/css"></style></defs><path d="M830.016 187.264C755.008 116.032 651.648 80 522.752 80c-126.72 0-233.408 43.008-316.992 127.744C122.304 292.416 80 399.36 80 525.504c0 124.288 40.256 226.368 119.552 303.168 78.848 76.48 186.304 115.328 319.424 115.328 99.648 0 187.904-16.576 262.4-49.28l-38.528-87.872c-62.336 27.264-137.6 41.152-223.872 41.152-108.8 0-191.424-28.864-252.608-88.256-60.8-58.88-90.368-135.552-90.368-234.24 0-101.44 32.128-183.36 98.112-250.368C339.904 208.448 421.248 176 522.752 176c104.96 0 183.808 26.432 241.152 80.896 56.64 53.824 84.096 121.856 84.096 208.128 0 57.344-11.008 104.448-32.832 139.968-31.872 52.032-63.488 78.528-93.952 78.528l-0.064 0c-30.656-0.064-46.208-17.216-46.272-48.96 0.256-3.584 1.344-12.864 3.136-28.096 5.12-44.416 15.552-135.296 28.16-274.88l-18.432-1.664c-11.712-21.504-29.312-43.84-50.816-57.28C610.176 256.064 579.584 247.68 545.984 247.68c-77.696 0-142.016 30.272-191.36 90.048C307.776 394.88 283.968 466.624 283.968 550.912c0 67.84 18.688 123.2 55.552 164.544 38.336 43.008 88.512 64.832 149.056 64.832 44.864 0 95.04-6.144 132.992-39.744 27.264 26.048 63.936 38.784 99.52 38.848l0.192 0c66.112 0 125.248-41.856 175.744-124.288 31.168-50.752 46.976-114.752 46.976-190.144C944 352.64 905.6 259.2 830.016 187.264zM488.576 684.288c-32.96 0-57.472-10.368-77.376-32.704C390.208 628.032 379.968 595.136 379.968 550.912c0-62.4 16-112.192 48.832-152.192 30.656-37.056 68.928-55.04 117.248-55.04 15.744 0 29.056 3.52 40.32 10.432 6.4 3.968 15.04 16.192 19.136 24.896C595.328 485.824 587.008 557.632 582.656 595.392c-1.408 12.288-2.368 21.248-2.944 27.52L579.456 622.784C568.896 672.256 551.04 684.288 488.576 684.288z" p-id="2465"></path></svg>