<?xml version="1.0" standalone="no"?><!DOCTYPE svg PUBLIC "-//W3C//DTD SVG 1.1//EN" "http://www.w3.org/Graphics/SVG/1.1/DTD/svg11.dtd"><svg t="1510478346272" class="icon" style="" viewBox="0 0 1024 1024" version="1.1" xmlns="http://www.w3.org/2000/svg" p-id="4716" xmlns:xlink="http://www.w3.org/1999/xlink" width="200" height="200"><defs><style type="text/css"></style></defs><path d="M837.12 296.96C727.04 253.44 624.64 104.96 512 104.96c-112.64 0-215.04 145.92-325.12 192-125.44 51.2-186.88 56.32-186.88 92.16 0 30.72 56.32 84.48 74.24 104.96 17.92 20.48 15.36 56.32 15.36 71.68C240.64 624.64 512 629.76 512 629.76s271.36-2.56 422.4-61.44c0-15.36-2.56-48.64 15.36-71.68 17.92-20.48 74.24-74.24 74.24-104.96 0-35.84-61.44-43.52-186.88-94.72z m-220.16 128c-15.36 76.8-56.32 143.36-104.96 143.36-40.96 0-97.28-64-104.96-143.36-5.12-87.04 38.4-143.36 104.96-143.36 66.56 0 120.32 58.88 104.96 143.36zM110.08 652.8c7.68 92.16 184.32 263.68 401.92 263.68S906.24 742.4 913.92 652.8c-84.48 40.96-232.96 66.56-401.92 66.56-168.96 2.56-317.44-25.6-401.92-66.56z" p-id="4717"></path></svg>